# xmcd CD database file
#
# Track frame offsets:
#	150
#	13065
#	26016
#	38315
#	52561
#	66382
#	80429
#	94319
#	108966
#	123717
#	140834
#	154178
#	170708
#	183246
#	193818
#
# Disc length: 2809 seconds
#
# Revision: 0
# Processed by: cddbd v1.5.2PL0 Copyright (c) Steve Scherf et al.
# Submitted via: CDex 1.51
#
DISCID=ca0af70f
DTITLE=Durack, Austin - Drops of Jazz
DYEAR=2012
DGENRE=Jazz
TTITLE0=Drops of Jazz
TTITLE1=Big Bad Handsome Man
TTITLE2=Brother Can You Spare a Dime
TTITLE3=Cailín Ipanema
TTITLE4=Isle of Capri
TTITLE5=Ninety-Nine Miles from L.A.
TTITLE6=Train of Thought
TTITLE7=Summertime
TTITLE8=A Boogie Blues
TTITLE9=Every Time We Say Goodbye
TTITLE10=Theme from Don Juan De Marco
TTITLE11=Lisboa
TTITLE12=Compostela by Starlight
TTITLE13=Blind Willie McTell
TTITLE14=I Fell In Love
EXTD=YEAR: 2012
EXTT0=
EXTT1=
EXTT2=
EXTT3=
EXTT4=
EXTT5=
EXTT6=
EXTT7=
EXTT8=
EXTT9=
EXTT10=
EXTT11=
EXTT12=
EXTT13=
EXTT14=
PLAYORDER=
